# Blender v2.82 (sub 7) OBJ File: ''
# www.blender.org
mtllib test.mtl
o Cube_Cube.001
v -0.496639 -1.625092 0.335301
v -0.922914 -0.030958 1.465357
v -0.972343 -0.587917 -1.307250
v -1.398617 1.006217 -0.177194
v 1.398617 -1.006217 0.177194
v 0.972343 0.587917 1.307250
v 0.922914 0.030958 -1.465357
v 0.496639 1.625092 -0.335301
vt 0.375000 0.000000
vt 0.625000 0.000000
vt 0.625000 0.250000
vt 0.375000 0.250000
vt 0.625000 0.500000
vt 0.375000 0.500000
vt 0.625000 0.750000
vt 0.375000 0.750000
vt 0.625000 1.000000
vt 0.375000 1.000000
vt 0.125000 0.500000
vt 0.125000 0.750000
vt 0.875000 0.500000
vt 0.875000 0.750000
vn -0.9476 -0.3094 0.0791
vn -0.2379 0.5186 -0.8213
vn 0.9476 0.3094 -0.0791
vn 0.2379 -0.5186 0.8213
vn 0.2131 -0.7971 -0.5650
vn -0.2131 0.7971 0.5650
usemtl None
s off
f 1/1/1 2/2/1 4/3/1 3/4/1
f 3/4/2 4/3/2 8/5/2 7/6/2
f 7/6/3 8/5/3 6/7/3 5/8/3
f 5/8/4 6/7/4 2/9/4 1/10/4
f 3/11/5 7/6/5 5/8/5 1/12/5
f 8/5/6 4/13/6 2/14/6 6/7/6
